<mxfile host="Electron" modified="2024-06-04T23:32:55.421Z" agent="Mozilla/5.0 (Windows NT 10.0; Win64; x64) AppleWebKit/537.36 (KHTML, like Gecko) draw.io/21.6.8 Chrome/114.0.5735.289 Electron/25.5.0 Safari/537.36" etag="NhkISkwXsIjnrX8VBVHz" version="21.6.8" type="device">
  <diagram name="Страница — 1" id="pr0X4UvWszAuuvSE1OPZ">
    <mxGraphModel dx="1806" dy="572" grid="1" gridSize="10" guides="1" tooltips="1" connect="1" arrows="1" fold="1" page="1" pageScale="1" pageWidth="827" pageHeight="1169" math="0" shadow="0">
      <root>
        <mxCell id="0" />
        <mxCell id="1" parent="0" />
        <mxCell id="wwvJh6jcp0jS9Wcdvhzp-3" style="edgeStyle=orthogonalEdgeStyle;rounded=0;orthogonalLoop=1;jettySize=auto;html=1;" edge="1" parent="1" source="wwvJh6jcp0jS9Wcdvhzp-1" target="wwvJh6jcp0jS9Wcdvhzp-2">
          <mxGeometry relative="1" as="geometry">
            <Array as="points">
              <mxPoint y="210" />
            </Array>
          </mxGeometry>
        </mxCell>
        <mxCell id="wwvJh6jcp0jS9Wcdvhzp-5" style="edgeStyle=orthogonalEdgeStyle;rounded=0;orthogonalLoop=1;jettySize=auto;html=1;" edge="1" parent="1" source="wwvJh6jcp0jS9Wcdvhzp-1" target="wwvJh6jcp0jS9Wcdvhzp-4">
          <mxGeometry relative="1" as="geometry" />
        </mxCell>
        <mxCell id="wwvJh6jcp0jS9Wcdvhzp-7" style="edgeStyle=orthogonalEdgeStyle;rounded=0;orthogonalLoop=1;jettySize=auto;html=1;" edge="1" parent="1" source="wwvJh6jcp0jS9Wcdvhzp-1" target="wwvJh6jcp0jS9Wcdvhzp-6">
          <mxGeometry relative="1" as="geometry">
            <Array as="points">
              <mxPoint y="450" />
            </Array>
          </mxGeometry>
        </mxCell>
        <mxCell id="wwvJh6jcp0jS9Wcdvhzp-1" value="Пользовательский графический интерфейс (GUI)" style="rounded=1;whiteSpace=wrap;html=1;" vertex="1" parent="1">
          <mxGeometry x="-60" y="290" width="120" height="80" as="geometry" />
        </mxCell>
        <mxCell id="wwvJh6jcp0jS9Wcdvhzp-10" style="edgeStyle=orthogonalEdgeStyle;rounded=0;orthogonalLoop=1;jettySize=auto;html=1;" edge="1" parent="1" source="wwvJh6jcp0jS9Wcdvhzp-2" target="wwvJh6jcp0jS9Wcdvhzp-8">
          <mxGeometry relative="1" as="geometry" />
        </mxCell>
        <mxCell id="wwvJh6jcp0jS9Wcdvhzp-2" value="Система генерации сцен для VR Concept" style="rounded=1;whiteSpace=wrap;html=1;" vertex="1" parent="1">
          <mxGeometry x="100" y="170" width="120" height="80" as="geometry" />
        </mxCell>
        <mxCell id="wwvJh6jcp0jS9Wcdvhzp-9" style="edgeStyle=orthogonalEdgeStyle;rounded=0;orthogonalLoop=1;jettySize=auto;html=1;" edge="1" parent="1" source="wwvJh6jcp0jS9Wcdvhzp-4" target="wwvJh6jcp0jS9Wcdvhzp-8">
          <mxGeometry relative="1" as="geometry" />
        </mxCell>
        <mxCell id="wwvJh6jcp0jS9Wcdvhzp-4" value="Система расчета собственных форм колебаний" style="rounded=1;whiteSpace=wrap;html=1;" vertex="1" parent="1">
          <mxGeometry x="100" y="290" width="120" height="80" as="geometry" />
        </mxCell>
        <mxCell id="wwvJh6jcp0jS9Wcdvhzp-11" style="edgeStyle=orthogonalEdgeStyle;rounded=0;orthogonalLoop=1;jettySize=auto;html=1;" edge="1" parent="1" source="wwvJh6jcp0jS9Wcdvhzp-6" target="wwvJh6jcp0jS9Wcdvhzp-8">
          <mxGeometry relative="1" as="geometry" />
        </mxCell>
        <mxCell id="wwvJh6jcp0jS9Wcdvhzp-6" value="Система численного моделирования колебаний" style="rounded=1;whiteSpace=wrap;html=1;" vertex="1" parent="1">
          <mxGeometry x="100" y="410" width="120" height="80" as="geometry" />
        </mxCell>
        <mxCell id="wwvJh6jcp0jS9Wcdvhzp-13" style="edgeStyle=orthogonalEdgeStyle;rounded=0;orthogonalLoop=1;jettySize=auto;html=1;" edge="1" parent="1" source="wwvJh6jcp0jS9Wcdvhzp-8" target="wwvJh6jcp0jS9Wcdvhzp-12">
          <mxGeometry relative="1" as="geometry" />
        </mxCell>
        <mxCell id="wwvJh6jcp0jS9Wcdvhzp-17" value="&lt;font style=&quot;font-size: 16px;&quot;&gt;UDP&lt;/font&gt;" style="edgeLabel;html=1;align=center;verticalAlign=middle;resizable=0;points=[];" vertex="1" connectable="0" parent="wwvJh6jcp0jS9Wcdvhzp-13">
          <mxGeometry x="-0.1378" y="-3" relative="1" as="geometry">
            <mxPoint x="5" y="-23" as="offset" />
          </mxGeometry>
        </mxCell>
        <mxCell id="wwvJh6jcp0jS9Wcdvhzp-8" value="Пакетирование" style="rounded=1;whiteSpace=wrap;html=1;" vertex="1" parent="1">
          <mxGeometry x="260" y="290" width="120" height="80" as="geometry" />
        </mxCell>
        <mxCell id="wwvJh6jcp0jS9Wcdvhzp-16" style="edgeStyle=orthogonalEdgeStyle;rounded=0;orthogonalLoop=1;jettySize=auto;html=1;" edge="1" parent="1" source="wwvJh6jcp0jS9Wcdvhzp-12" target="wwvJh6jcp0jS9Wcdvhzp-15">
          <mxGeometry relative="1" as="geometry" />
        </mxCell>
        <mxCell id="wwvJh6jcp0jS9Wcdvhzp-12" value="Сервер-визуализатор" style="rounded=1;whiteSpace=wrap;html=1;" vertex="1" parent="1">
          <mxGeometry x="530" y="290" width="120" height="80" as="geometry" />
        </mxCell>
        <mxCell id="wwvJh6jcp0jS9Wcdvhzp-15" value="Объекты колебательной системы" style="rounded=1;whiteSpace=wrap;html=1;" vertex="1" parent="1">
          <mxGeometry x="690" y="290" width="120" height="80" as="geometry" />
        </mxCell>
      </root>
    </mxGraphModel>
  </diagram>
</mxfile>
